<svg width="207" height="61" viewBox="0 0 207 61" fill="none" xmlns="http://www.w3.org/2000/svg">
<g clip-path="url(#clip0_1_10)">
<path d="M66.003 4.40463C65.8924 4.83736 66.161 5.131 66.2874 5.45555C70.3958 15.4239 74.5358 25.4077 78.6442 35.376C80.0348 38.7297 81.3937 42.0834 82.7684 45.4216C82.8158 45.5298 82.8474 45.6225 82.8948 45.7307C83.1951 46.5189 83.1951 46.5189 82.3734 46.7353C79.7819 47.3844 77.1273 47.7553 74.4726 48.018C72.6871 48.188 70.8857 48.2498 69.1001 48.2653C68.1204 48.2653 68.1046 48.2653 67.7412 47.3689C65.8608 42.7943 63.9962 38.2351 62.1316 33.6605C61.6418 32.4705 61.1519 31.2959 60.6621 30.1059C60.5989 29.9359 60.5041 29.7814 60.5989 29.4877H71.2333C71.5178 29.1323 71.3123 28.9004 71.2175 28.6841C67.994 20.9103 64.7863 13.1366 61.547 5.36282C61.0729 4.20371 61.3258 4.29644 59.9826 4.29644H49.3166C49.0954 4.29644 48.8742 4.29644 48.6529 4.29644C48.0525 4.32735 48.0051 4.37372 48.2263 4.961C48.7794 6.35193 49.364 7.74286 49.9329 9.11833C55.1632 21.8067 60.4093 34.4796 65.6396 47.1525C65.766 47.4462 65.9714 47.7244 65.8924 48.0953C64.4387 48.0953 62.9849 48.1571 61.547 48.0953C57.7862 47.8789 54.0413 47.4616 50.3121 46.8743C47.8945 46.5034 45.4768 46.0552 43.0592 45.6689C39.33 45.0661 35.6167 44.5561 31.8243 44.3861C29.5963 44.2934 27.3525 44.1852 25.1245 44.2625C16.9235 44.5561 8.8805 45.808 1.23256 48.9607C1.10615 49.0071 0.963939 49.038 0.853328 49.0689C0.537298 48.868 0.632107 48.5898 0.632107 48.358C0.632107 42.3461 0.632107 36.3496 0.632107 30.3377C0.632107 29.4414 0.632107 29.4259 1.5486 29.4259C4.91432 29.4259 8.29585 29.4259 11.6616 29.4259C11.9144 29.4259 12.183 29.4259 12.4358 29.4259C12.9731 29.4568 13.1311 29.1786 13.1153 28.6995C13.0995 27.3859 13.1153 26.0722 13.1153 24.7431C13.1153 23.8158 13.1153 23.8004 14.095 23.8004C15.2643 23.8004 16.4336 23.8004 17.6187 23.8004C18.472 23.8004 18.472 23.8004 18.4878 24.6195C18.4878 25.794 18.4878 26.9686 18.4878 28.1277V39.8733C18.4878 40.9088 18.4878 40.9243 19.4675 40.9243H40.1359C41.084 40.9243 41.0998 40.9243 41.0998 39.9661V30.5232C41.0998 29.3641 41.005 29.4105 42.2533 29.4105H53.4566C53.6304 28.9623 53.346 28.6532 53.2196 28.3286C50.0277 20.5858 46.8042 12.8584 43.6281 5.10009C43.3278 4.37372 42.9328 4.23462 42.2217 4.23462C34.7476 4.26553 27.2735 4.23462 19.7994 4.23462C18.2824 4.23462 18.4878 4.35826 18.472 2.85915C18.472 2.13277 18.4878 1.39094 18.472 0.66457C18.4562 0.154562 18.6142 -0.108169 19.1515 -0.0618048C19.4043 -0.04635 19.6729 -0.0618048 19.9258 -0.0618048H85.1229C86.861 -0.0618048 86.5924 -0.231807 86.6082 1.48367C86.6082 2.21005 86.6082 2.95188 86.6082 3.67825C86.6082 4.03371 86.4818 4.21917 86.1026 4.21917C85.8023 4.21917 85.5179 4.21917 85.2177 4.21917C79.2131 4.21917 73.1927 4.21917 67.1881 4.21917C66.7931 4.21917 66.398 4.12644 66.0188 4.3119H66.0504L66.003 4.40463Z" fill="#A87550"/>
<path d="M0 53.1644C0.489847 52.7317 1.0587 52.4844 1.61176 52.2062C5.92557 50.0271 10.508 48.6671 15.2485 47.7862C19.8783 46.9207 24.5398 46.5807 29.2486 46.7198C33.7995 46.8589 38.2871 47.4307 42.7589 48.3271C46.9147 49.1616 51.0863 50.0117 55.2895 50.568C61.7682 51.4026 68.2784 51.6962 74.7886 51.0317C79.0234 50.5989 83.1634 49.7489 87.2718 47.9562C86.9558 48.4507 86.6082 48.6053 86.3237 48.8062C86.0235 49.0225 85.7075 49.208 85.3915 49.3935C82.2786 51.2326 78.897 52.4535 75.3891 53.2572C69.9692 54.509 64.486 54.8954 58.9239 54.679C52.7139 54.4317 46.6461 53.2881 40.5783 52.0671C33.4834 50.6453 26.3095 49.9807 19.0724 50.2435C12.7676 50.4753 6.52603 51.2635 0.474046 53.1644C0.331832 53.2108 0.189618 53.2417 0.0316031 53.1644H0Z" fill="#2A5D7A"/>
<path d="M83.5426 54.9263C82.1047 56.0236 80.572 56.7963 78.9918 57.4763C75.1994 59.0991 71.2333 60.0418 67.1407 60.5673C62.3844 61.17 57.644 61.1082 52.8877 60.7063C48.6845 60.3354 44.5603 59.5318 40.4361 58.6663C32.6617 57.0281 24.7926 56.3945 16.8444 56.8581C11.5351 57.1672 6.28899 57.9554 1.20089 59.5627C1.10608 59.5936 0.995474 59.5936 0.679443 59.64C1.02708 59.4081 1.20089 59.2845 1.39051 59.1763C1.61173 59.0372 1.83295 58.929 2.05418 58.8054C5.87815 56.8117 9.95494 55.529 14.1581 54.6481C17.9347 53.8444 21.7587 53.4426 25.5985 53.3808C30.5443 53.319 35.4744 53.7362 40.3413 54.679C44.5129 55.4826 48.6529 56.3945 52.8719 56.9508C59.4295 57.8163 66.003 58.1718 72.5922 57.4145C76.1633 56.9972 79.6713 56.3017 83.0212 54.9108C83.1476 54.8644 83.2898 54.7717 83.5426 54.9572V54.9263Z" fill="#2A5D7A"/>
<path d="M78.4072 29.4568H82.3102C83.4795 29.4568 84.6488 29.4722 85.8181 29.4568C86.3712 29.4568 86.6556 29.6113 86.5766 30.1986C86.5766 30.3068 86.5766 30.415 86.5766 30.5232C86.5766 35.1596 86.5766 39.8115 86.5766 44.4634C86.5766 44.8343 86.7188 45.267 86.2606 45.5452C85.3915 46.0861 85.0439 45.9934 84.6488 45.0507C82.6894 40.2906 80.7301 35.5151 78.7865 30.755C78.6285 30.3841 78.4072 30.0441 78.4072 29.4568Z" fill="#A87550"/>
<path d="M29.7543 29.4568H38.5399C39.3616 29.4568 39.3932 29.4723 39.3932 30.3068C39.3932 33.0423 39.3932 35.7933 39.3932 38.5288C39.3932 39.3015 39.3616 39.3324 38.6031 39.3324C32.7407 39.3324 26.8942 39.3324 21.0318 39.3324C20.2101 39.3324 20.1943 39.3169 20.1943 38.4669C20.1943 35.7314 20.1943 32.9805 20.1943 30.2295C20.1943 29.4568 20.2101 29.4413 20.9844 29.4413C23.9077 29.4413 26.8468 29.4413 29.7701 29.4413L29.7543 29.4568Z" fill="#585858"/>
<path d="M172.553 29.4104C173.264 29.4413 172.9 28.7304 172.9 28.3904C172.932 23.4913 172.916 18.5766 172.932 13.6775C172.932 13.3529 172.805 12.982 173.106 12.6111C173.295 12.9975 173.438 13.2911 173.58 13.5847C175.839 18.4994 178.083 23.4294 180.359 28.3441C180.564 28.7768 180.58 29.4723 181.243 29.4413C181.828 29.4104 181.86 28.7922 182.034 28.375C184.151 23.4758 186.253 18.5612 188.386 13.662C188.512 13.3838 188.528 13.0129 188.876 12.8429C189.049 13.0284 188.955 13.2602 188.955 13.4457C188.955 18.3139 188.955 23.1822 188.955 28.0504C188.955 29.7195 188.686 29.4723 190.408 29.4877C191.262 29.4877 191.262 29.4877 191.293 28.6686C191.293 28.5604 191.293 28.4522 191.293 28.3441V11.6529C191.293 10.7102 191.293 10.7102 190.314 10.6947C188.607 10.6947 188.923 10.6947 188.386 11.9311C186.426 16.4284 184.514 20.9258 182.555 25.4231C182.429 25.7167 182.397 26.0722 182.081 26.2731C181.812 26.0567 181.749 25.7322 181.623 25.4386C179.6 21.0185 177.578 16.5984 175.555 12.1629C175.097 11.1429 174.307 10.6638 173.201 10.6947C173.058 10.6947 172.9 10.7102 172.758 10.6947C172.379 10.6947 172.252 10.8956 172.268 11.2511C172.268 11.4365 172.268 11.622 172.268 11.792C172.268 17.3248 172.268 22.8422 172.268 28.375C172.268 28.7304 172.047 29.3795 172.521 29.3795L172.553 29.4104Z" fill="#2A5D7A"/>
<path d="M145.042 50.0735C143.367 52.6081 140.46 53.6899 137.789 52.7317C136.241 52.1908 135.103 51.1244 134.266 49.7335C133.175 47.9253 132.796 45.9161 132.812 43.8452C132.812 42.4234 133.049 41.0015 133.586 39.6569C134.028 38.5597 134.645 37.5706 135.482 36.736C137.916 34.356 141.518 34.325 143.968 36.6896C145.548 38.2042 146.259 40.136 146.559 42.2533C146.638 42.8252 146.638 43.4279 146.686 43.9997C146.686 46.1634 146.259 48.2189 145.058 50.058L145.042 50.0735ZM132.938 36.8133C129.067 40.2442 128.514 45.9007 131.706 49.8726C133.728 52.3917 136.399 53.6435 139.638 53.6899C140.523 53.7208 141.392 53.6281 142.261 53.4117C149.324 51.758 152.216 43.397 147.634 37.8951C143.999 33.5369 137.205 33.0423 132.954 36.7978L132.938 36.8133Z" fill="#2A5D7A"/>
<path d="M128.387 19.4421C127.755 19.3494 127.044 19.6739 126.633 19.2875C126.207 18.9012 126.491 18.1748 126.475 17.603C126.444 15.7793 126.46 13.9402 126.475 12.1165C126.475 11.3592 126.539 11.282 127.297 11.3283C128.356 11.3902 129.415 11.3747 130.457 11.6838C132.922 12.4256 134.108 15.4084 132.796 17.6493C132.148 18.7621 131.058 19.1794 129.873 19.3648C129.367 19.4421 128.846 19.4266 128.387 19.4421ZM138.801 29.6113C139.038 29.6577 139.322 29.7968 139.464 29.4722C139.607 29.1477 139.385 29.0086 139.148 28.885C138.358 28.4677 137.742 27.834 137.141 27.2004C135.64 25.6395 134.313 23.924 133.033 22.193C132.496 21.4667 131.959 20.7248 131.39 19.9366C132.275 19.6275 133.112 19.5348 133.886 19.1948C135.419 18.5148 136.383 17.4484 136.446 15.702C136.494 13.9093 135.719 12.6111 134.123 11.8074C133.634 11.5602 133.112 11.3747 132.575 11.2356C129.952 10.5711 127.266 10.7874 124.595 10.7101C124.2 10.7101 124.089 10.9111 124.105 11.2665C124.105 11.5138 124.105 11.7765 124.105 12.0393C124.105 17.3402 124.105 22.6567 124.105 27.9577C124.105 29.7659 123.726 29.4568 125.78 29.5186C126.381 29.5341 126.507 29.2868 126.507 28.7459C126.475 27.1386 126.507 25.5313 126.507 23.9085C126.507 22.8112 126.523 21.7139 126.507 20.6167C126.507 20.1066 126.728 19.9985 127.171 20.0139C127.961 20.0448 128.561 20.3848 129.019 21.0339C130.062 22.5021 131.153 23.924 132.148 25.4076C133.76 27.8186 136.114 29.0086 138.832 29.6422L138.801 29.6113Z" fill="#2A5D7A"/>
<path d="M116.868 23.8004C115.873 26.6131 113.929 28.2668 110.943 28.6686C109.631 28.8386 108.304 28.7459 106.992 28.8386C106.36 28.885 106.281 28.5759 106.281 28.0504C106.281 25.7786 106.281 23.5067 106.281 21.2349V12.2247C106.281 11.3747 106.281 11.3593 107.119 11.3593C109.031 11.3593 110.927 11.4984 112.712 12.2866C115.478 13.5075 116.979 15.6248 117.342 18.5921C117.563 20.354 117.453 22.1003 116.868 23.7849V23.8004ZM115.478 11.9466C114.798 11.6684 114.119 11.4211 113.392 11.2511C110.548 10.5402 107.64 10.7256 104.748 10.7256C103.895 10.7256 103.895 10.7565 103.895 11.6684V28.6995C103.895 29.1014 103.8 29.5186 104.464 29.5032C106.961 29.4568 109.457 29.6423 111.922 29.2559C114.134 28.9004 116.141 28.0968 117.879 26.644C121.782 23.3985 122.004 14.6202 115.478 11.9466Z" fill="#2A5D7A"/>
<path d="M118.685 52.5926C117.895 52.7162 117.089 52.7781 116.283 52.7626C115.367 52.7626 115.351 52.7626 115.351 51.8662C115.351 50.5835 115.351 49.3162 115.351 48.0334V43.9843C115.351 43.6288 115.351 43.3507 115.857 43.3352C117.263 43.2888 118.638 43.4279 119.918 44.0461C121.466 44.7879 122.288 46.0398 122.367 47.7707C122.367 47.9562 122.367 48.1416 122.383 48.3116C122.399 50.908 121.277 52.1908 118.685 52.5926ZM116.046 35.2214C116.9 35.2214 117.737 35.2678 118.543 35.4687C119.823 35.7778 120.708 36.566 120.961 37.8797C121.466 40.5379 120.313 42.2843 117.674 42.6861C115.351 43.0261 115.351 43.0106 115.351 40.7543V38.9924C115.351 37.9724 115.367 36.9524 115.351 35.9169C115.351 35.3914 115.525 35.2214 116.046 35.2214ZM122.762 43.8916C122.051 43.4897 121.292 43.2425 120.297 42.9797C120.992 42.6397 121.529 42.4234 122.019 42.1297C124.516 40.6306 124.484 37.1997 121.988 35.7005C121.387 35.3451 120.724 35.1133 120.044 34.9587C117.879 34.4796 115.683 34.5723 113.487 34.5569C112.933 34.5569 112.949 34.8969 112.949 35.2833C112.949 41.0633 112.949 46.8434 112.949 52.6235C112.949 53.3653 112.981 53.3808 113.771 53.3808C115.019 53.3808 116.268 53.4117 117.5 53.3499C119.033 53.2726 120.566 53.2263 122.051 52.7472C123.931 52.1444 124.99 50.8926 125.132 48.9144C125.274 46.7971 124.737 45.0043 122.762 43.8761V43.8916Z" fill="#2A5D7A"/>
<path d="M206.842 23.5376C206.526 22.3476 205.831 21.4512 204.851 20.7403C203.603 19.8285 202.212 19.1794 200.806 18.5457C199.905 18.1285 199.004 17.7266 198.293 17.0003C196.682 15.362 197.14 12.4411 199.194 11.6684C200.948 11.0193 202.655 11.0811 204.093 12.472C204.314 12.6884 204.503 12.8893 204.835 12.6729C204.409 11.8384 203.95 11.3593 203.018 11.0656C201.011 10.4474 199.036 10.5247 197.171 11.5756C195.907 12.2865 195.18 13.4147 194.975 14.8366C194.675 17.0003 195.291 18.8239 197.219 20.0448C197.93 20.493 198.657 20.9103 199.4 21.3121C200.205 21.7449 201.043 22.1158 201.849 22.5485C202.465 22.8731 203.05 23.2594 203.508 23.8004C204.725 25.1913 204.377 27.324 202.765 28.2204C200.837 29.3023 197.456 28.9004 196.16 26.5822C196.065 26.4277 196.002 26.2422 195.892 26.1186C195.765 25.964 195.56 25.964 195.386 26.0258C195.133 26.134 195.259 26.3349 195.323 26.4895C195.749 27.664 196.571 28.4831 197.709 28.9159C199.968 29.7968 202.244 29.735 204.44 28.7613C206.463 27.865 207.379 25.6858 206.826 23.5376H206.842Z" fill="#2A5D7A"/>
<path d="M194.864 44.0307C193.727 43.3506 192.542 42.7943 191.341 42.2534C190.614 41.9134 189.919 41.527 189.302 40.9861C187.817 39.7033 187.896 36.5196 189.903 35.6233C191.515 34.9123 193.885 35.0514 195.022 36.3496C195.212 36.5815 195.402 36.8133 195.813 36.5969C195.512 35.7778 194.88 35.3142 194.122 35.036C191.925 34.2323 189.808 34.4023 187.817 35.6696C186.853 36.2878 186.205 37.1996 186 38.3278C185.589 40.7697 186.047 42.547 188.165 43.9688C189.302 44.7261 190.519 45.2979 191.736 45.9007C192.684 46.3798 193.648 46.8434 194.39 47.6316C195.196 48.4971 195.37 49.4707 194.975 50.568C194.564 51.7271 193.679 52.3453 192.542 52.5308C190.25 52.9017 188.228 52.4844 186.979 50.2589C186.79 49.9035 186.537 49.7798 186.142 50.0426C186.553 51.5417 187.564 52.4844 189.002 52.9635C190.977 53.6126 192.984 53.5817 194.928 52.8399C198.12 51.6344 198.925 47.7089 196.524 45.2825C196.034 44.7879 195.465 44.3861 194.864 44.0307Z" fill="#2A5D7A"/>
<path d="M156.577 45.1125C157.589 42.1142 158.568 39.2087 159.532 36.3187C159.595 36.3187 159.643 36.3187 159.706 36.3187C160.67 39.2242 161.618 42.1297 162.614 45.097H156.577V45.1125ZM162.914 38.4206C162.487 37.1378 162.076 35.8551 161.65 34.5723C161.555 34.2787 161.476 33.8614 161.018 34.0005C160.212 34.2478 159.437 34.5105 159.121 35.4687C157.209 41.2179 155.266 46.967 153.338 52.7162C153.259 52.9326 153.022 53.2108 153.385 53.3653C153.701 53.489 153.844 53.2262 153.939 52.979C154.002 52.8089 154.049 52.6389 154.112 52.4535C154.76 50.5526 155.408 48.6516 156.04 46.7352C156.23 46.1479 156.483 45.8234 157.178 45.8543C158.821 45.9007 160.48 45.8852 162.124 45.8543C162.693 45.8543 162.977 46.0243 163.135 46.5807C163.641 48.2189 164.194 49.8416 164.747 51.4798C165.205 52.8708 166.201 53.489 167.733 53.319C167.828 52.9326 167.623 52.608 167.512 52.268C165.995 47.6471 164.462 43.0415 162.945 38.4206H162.914Z" fill="#2A5D7A"/>
<path d="M159.279 21.3121C158.521 21.3121 158.458 21.2194 158.711 20.4776C159.548 17.9739 160.401 15.4857 161.255 12.9975C161.302 12.8429 161.397 12.6884 161.571 12.302C162.598 15.4084 163.546 18.2521 164.557 21.3121C162.661 21.3121 160.986 21.3121 159.295 21.3121H159.279ZM169.661 29.3795C169.614 29.1786 169.598 29.0241 169.55 28.9004C167.575 22.9349 165.6 16.9693 163.625 11.0038C163.562 10.8338 163.514 10.6638 163.451 10.4783C163.325 10.1538 163.103 10.0147 162.772 10.1229C161.966 10.3856 161.239 10.6947 160.954 11.6684C160.433 13.4147 159.817 15.1302 159.232 16.8612C157.889 20.833 156.546 24.8204 155.203 28.8077C155.139 29.0086 154.902 29.3332 155.297 29.4413C155.613 29.5341 155.74 29.3022 155.819 29.0241C155.866 28.8077 155.961 28.6068 156.024 28.4059C156.656 26.5358 157.304 24.6813 157.905 22.7958C158.094 22.1931 158.363 21.8994 159.058 21.9149C160.702 21.9612 162.345 21.9612 164.004 21.9149C164.589 21.9149 164.842 22.1158 165.015 22.6567C165.521 24.2949 166.058 25.9331 166.627 27.5559C166.848 28.1895 166.801 29.1013 167.433 29.3795C168.018 29.6268 168.792 29.4259 169.487 29.4259C169.519 29.4259 169.55 29.395 169.677 29.3486L169.661 29.3795Z" fill="#2A5D7A"/>
<path d="M153.322 29.1322C153.291 28.7459 152.959 28.8386 152.738 28.8231C152.437 28.8231 152.153 28.8231 151.853 28.8231C149.577 28.8231 147.318 28.8231 145.042 28.8231C144.521 28.8231 144.331 28.6841 144.347 28.1431C144.378 25.7013 144.378 23.244 144.347 20.7867C144.347 20.1994 144.568 20.0294 145.121 20.0603C146.18 20.0912 147.239 20.0603 148.313 20.0603C148.534 20.0603 148.756 20.0603 148.961 20.0294C149.135 19.9985 149.214 19.8748 149.166 19.7048C149.135 19.6121 149.072 19.473 148.993 19.4576C148.787 19.4112 148.566 19.3957 148.345 19.3957C147.286 19.3957 146.227 19.3957 145.153 19.3957C144.363 19.3957 144.347 19.3803 144.347 18.623C144.347 16.4593 144.347 14.3111 144.347 12.1474C144.347 11.3747 144.363 11.3593 145.153 11.3593C147.207 11.3593 149.245 11.3593 151.3 11.3593C151.6 11.3593 151.884 11.3593 152.169 11.3129C152.311 11.2974 152.421 11.1738 152.421 11.0038C152.421 10.8338 152.311 10.7411 152.169 10.6947C152.026 10.6638 151.884 10.6638 151.726 10.6638C148.724 10.6638 145.722 10.6638 142.719 10.6638C141.961 10.6638 141.945 10.6947 141.945 11.4829C141.945 14.342 141.945 17.1857 141.945 20.0448V28.6068C141.945 29.4413 141.945 29.4568 142.783 29.4568C146.038 29.4568 149.293 29.4568 152.548 29.4568H152.769C153.006 29.4259 153.338 29.5032 153.306 29.1013L153.322 29.1322Z" fill="#2A5D7A"/>
<path d="M181.955 34.5723C181.844 34.5723 181.733 34.5723 181.623 34.5723C177.672 34.5723 173.706 34.5723 169.756 34.5723C169.424 34.5723 168.808 34.3096 168.824 34.9432C168.839 35.4687 169.408 35.206 169.724 35.2214C171.115 35.2523 172.505 35.2369 173.896 35.2214C174.291 35.2214 174.528 35.3296 174.496 35.7778C174.496 36.0714 174.496 36.3651 174.496 36.6587C174.496 41.7433 174.496 46.828 174.496 51.9126C174.496 53.5817 174.212 53.3808 176.045 53.3808C176.851 53.3808 176.867 53.3808 176.882 52.5153C176.882 49.7644 176.882 47.0289 176.882 44.2779C176.882 41.6815 176.882 39.0851 176.882 36.4887C176.882 35.036 176.74 35.2369 178.194 35.2214C179.442 35.2214 180.69 35.2214 181.923 35.2214C182.176 35.2214 182.587 35.376 182.602 34.9123C182.602 34.4642 182.207 34.6032 181.939 34.5723H181.955Z" fill="#2A5D7A"/>
<path d="M29.7543 30.4305C32.2825 30.4305 34.8107 30.4305 37.339 30.4305C38.1923 30.4305 38.2081 30.4459 38.2081 31.2805C38.2081 33.3205 38.2081 35.376 38.2081 37.4315C38.2081 38.2969 38.1923 38.3124 37.26 38.3124C33.5308 38.3124 29.7859 38.3124 26.0567 38.3124C24.7452 38.3124 23.4178 38.2969 22.1063 38.3124C21.5533 38.3124 21.3162 38.1424 21.332 37.5706C21.3636 35.4533 21.332 33.3359 21.332 31.2032C21.332 30.4614 21.3636 30.4459 22.1853 30.4305C24.7136 30.4305 27.2418 30.4305 29.7701 30.4305H29.7543Z" fill="#A7A5A6"/>
</g>
<defs>
<clipPath id="clip0_1_10">
<rect width="207" height="61" fill="white"/>
</clipPath>
</defs>
</svg>
