<svg width="43" height="30" viewBox="0 0 43 30" fill="none" xmlns="http://www.w3.org/2000/svg">
<path d="M32.3337 2.373C32.2801 2.58261 32.4103 2.72484 32.4715 2.88204C34.4615 7.7104 36.4668 12.5462 38.4567 17.3746C39.1303 18.999 39.7885 20.6234 40.4544 22.2404C40.4773 22.2928 40.4927 22.3377 40.5156 22.3901C40.661 22.7719 40.661 22.7719 40.263 22.8767C39.0078 23.1911 37.722 23.3707 36.4361 23.498C35.5713 23.5803 34.6987 23.6103 33.8339 23.6178C33.3593 23.6178 33.3517 23.6178 33.1756 23.1836C32.2648 20.9678 31.3617 18.7595 30.4585 16.5437C30.2213 15.9673 29.984 15.3983 29.7467 14.8219C29.7161 14.7396 29.6702 14.6647 29.7161 14.5225H34.8671C35.0049 14.3503 34.9054 14.238 34.8595 14.1332C33.2981 10.3679 31.7444 6.6025 30.1754 2.83713C29.9457 2.27569 30.0682 2.3206 29.4176 2.3206H24.2513C24.1442 2.3206 24.037 2.3206 23.9299 2.3206C23.639 2.33558 23.6161 2.35803 23.7232 2.64249C23.9911 3.31622 24.2743 3.98994 24.5498 4.65618C27.0832 10.802 29.6243 16.9404 32.1577 23.0788C32.2189 23.221 32.3184 23.3558 32.2801 23.5354C31.576 23.5354 30.8719 23.5654 30.1754 23.5354C28.3538 23.4306 26.5398 23.2285 24.7335 22.9441C23.5625 22.7644 22.3915 22.5473 21.2204 22.3602C19.4141 22.0682 17.6155 21.8212 15.7786 21.7388C14.6994 21.6939 13.6126 21.6415 12.5334 21.6789C8.56108 21.8212 4.66531 22.4275 0.960876 23.9546C0.899645 23.9771 0.830762 23.9921 0.777185 24.007C0.624109 23.9097 0.670032 23.775 0.670032 23.6627C0.670032 20.7507 0.670032 17.8462 0.670032 14.9342C0.670032 14.5 0.670032 14.4926 1.11395 14.4926C2.74421 14.4926 4.38212 14.4926 6.01237 14.4926C6.13483 14.4926 6.26495 14.4926 6.38741 14.4926C6.64763 14.5075 6.72417 14.3728 6.71652 14.1407C6.70887 13.5044 6.71652 12.8681 6.71652 12.2243C6.71652 11.7752 6.71652 11.7677 7.19105 11.7677C7.75743 11.7677 8.32381 11.7677 8.89785 11.7677C9.31115 11.7677 9.31115 11.7677 9.3188 12.1645C9.3188 12.7334 9.3188 13.3023 9.3188 13.8637V19.553C9.3188 20.0545 9.3188 20.062 9.79334 20.062H19.8045C20.2637 20.062 20.2714 20.062 20.2714 19.5979V15.024C20.2714 14.4626 20.2254 14.4851 20.8301 14.4851H26.2566C26.3408 14.268 26.203 14.1183 26.1418 13.9611C24.5957 10.2107 23.0344 6.46775 21.496 2.70987C21.3505 2.35803 21.1592 2.29066 20.8148 2.29066C17.1945 2.30563 13.5743 2.29066 9.95407 2.29066C9.21931 2.29066 9.3188 2.35055 9.31115 1.62442C9.31115 1.27259 9.3188 0.913269 9.31115 0.561435C9.3035 0.314403 9.38003 0.187144 9.64026 0.209601C9.76272 0.217087 9.89284 0.209601 10.0153 0.209601H41.5948C42.4367 0.209601 42.3066 0.127257 42.3143 0.958184C42.3143 1.31002 42.3143 1.66934 42.3143 2.02117C42.3143 2.19334 42.253 2.28317 42.0693 2.28317C41.9239 2.28317 41.7861 2.28317 41.6407 2.28317C38.7323 2.28317 35.8162 2.28317 32.9078 2.28317C32.7164 2.28317 32.5251 2.23826 32.3414 2.32809H32.3567L32.3337 2.373Z" fill="white"/>
<path d="M0.364014 25.9908C0.601281 25.7812 0.876817 25.6614 1.1447 25.5267C3.23418 24.4712 5.45378 23.8124 7.74991 23.3857C9.99247 22.9665 12.2503 22.8018 14.5312 22.8692C16.7355 22.9366 18.9091 23.2136 21.0751 23.6477C23.0881 24.052 25.1087 24.4637 27.1446 24.7332C30.2826 25.1374 33.436 25.2797 36.5894 24.9578C38.6406 24.7482 40.6459 24.3364 42.6358 23.4681C42.4828 23.7076 42.3144 23.7825 42.1766 23.8798C42.0312 23.9846 41.8781 24.0744 41.7251 24.1643C40.2173 25.0551 38.5793 25.6465 36.8802 26.0357C34.255 26.6421 31.5991 26.8292 28.905 26.7244C25.897 26.6046 22.958 26.0507 20.0189 25.4593C16.5824 24.7706 13.1076 24.4487 9.60213 24.576C6.54827 24.6883 3.52503 25.0701 0.593627 25.9908C0.524743 26.0133 0.455859 26.0282 0.379321 25.9908H0.364014Z" fill="white"/>
<path d="M40.8295 26.8442C40.133 27.3757 39.3906 27.75 38.6253 28.0793C36.7883 28.8654 34.8672 29.322 32.8849 29.5765C30.5811 29.8685 28.285 29.8385 25.9812 29.6439C23.9453 29.4642 21.9477 29.075 19.95 28.6558C16.1844 27.8623 12.3728 27.5553 8.52293 27.7799C5.95126 27.9296 3.41021 28.3114 0.94569 29.0899C0.899767 29.1049 0.846191 29.1049 0.693115 29.1274C0.861498 29.0151 0.94569 28.9552 1.03754 28.9028C1.14469 28.8354 1.25184 28.783 1.35899 28.7231C3.21121 27.7575 5.18588 27.1361 7.22179 26.7094C9.05104 26.3202 10.9033 26.1255 12.7631 26.0956C15.1588 26.0657 17.5467 26.2678 19.9041 26.7244C21.9247 27.1137 23.93 27.5553 25.9736 27.8248C29.1499 28.244 32.3338 28.4162 35.5255 28.0494C37.2552 27.8473 38.9544 27.5104 40.577 26.8367C40.6382 26.8142 40.7071 26.7693 40.8295 26.8592V26.8442Z" fill="white"/>
<path d="M38.342 14.5075H40.2325C40.7989 14.5075 41.3653 14.515 41.9317 14.5075C42.1995 14.5075 42.3373 14.5824 42.299 14.8669C42.299 14.9193 42.299 14.9717 42.299 15.0241C42.299 17.2698 42.299 19.523 42.299 21.7763C42.299 21.9559 42.3679 22.1655 42.146 22.3003C41.725 22.5623 41.5566 22.5174 41.3653 22.0607C40.4162 19.7551 39.4671 17.442 38.5257 15.1363C38.4492 14.9567 38.342 14.792 38.342 14.5075Z" fill="white"/>
<path d="M14.776 14.5075H19.0315C19.4295 14.5075 19.4449 14.515 19.4449 14.9193C19.4449 16.2443 19.4449 17.5767 19.4449 18.9017C19.4449 19.276 19.4295 19.291 19.0622 19.291C16.2226 19.291 13.3907 19.291 10.5512 19.291C10.1532 19.291 10.1455 19.2835 10.1455 18.8718C10.1455 17.5468 10.1455 16.2143 10.1455 14.8818C10.1455 14.5075 10.1532 14.5001 10.5282 14.5001C11.9441 14.5001 13.3677 14.5001 14.7837 14.5001L14.776 14.5075Z" fill="white"/>
<path d="M14.7761 14.9792C16.0007 14.9792 17.2253 14.9792 18.4499 14.9792C18.8632 14.9792 18.8709 14.9866 18.8709 15.3909C18.8709 16.379 18.8709 17.3746 18.8709 18.3702C18.8709 18.7894 18.8632 18.7969 18.4117 18.7969C16.6054 18.7969 14.7914 18.7969 12.9851 18.7969C12.3499 18.7969 11.7069 18.7894 11.0717 18.7969C10.8038 18.7969 10.689 18.7146 10.6966 18.4376C10.712 17.412 10.6966 16.3865 10.6966 15.3534C10.6966 14.9941 10.712 14.9866 11.11 14.9792C12.3346 14.9792 13.5592 14.9792 14.7838 14.9792H14.7761Z" fill="white"/>
</svg>
