<svg width="30" height="28" viewBox="0 0 30 28" fill="none" xmlns="http://www.w3.org/2000/svg">
<path d="M27.1552 2.62515H23.2852V0.875113C23.2854 0.643044 23.1915 0.420418 23.0241 0.256211C22.8567 0.0920042 22.6296 -0.000333361 22.3928 -0.000488073C22.1559 -0.000642786 21.9287 0.091398 21.7611 0.255386C21.5935 0.419375 21.4993 0.641878 21.4991 0.873947V2.62515H16.1408V0.875113C16.1408 0.760204 16.1178 0.646406 16.073 0.540214C16.0282 0.434023 15.9625 0.337518 15.8796 0.256211C15.7967 0.174904 15.6983 0.110386 15.59 0.0663419C15.4817 0.0222974 15.3656 -0.000411481 15.2483 -0.000488087C15.0114 -0.000642799 14.7842 0.091398 14.6166 0.255386C14.449 0.419375 14.3548 0.641878 14.3546 0.873947V2.62515H8.99628V0.875113C8.99636 0.760204 8.97333 0.646406 8.92853 0.540214C8.88372 0.434023 8.818 0.337518 8.73513 0.256211C8.65226 0.174904 8.55385 0.110386 8.44553 0.0663419C8.33721 0.0222974 8.22109 -0.000411481 8.10381 -0.000488087C7.86696 -0.000642799 7.63974 0.091398 7.47215 0.255386C7.30456 0.419375 7.21032 0.641878 7.21016 0.873947V2.62515H3.34023C2.70883 2.62515 2.10327 2.87083 1.65668 3.30817C1.2101 3.74551 0.959056 4.33872 0.95874 4.95737V25.6661C0.95874 26.285 1.20965 26.8785 1.65626 27.3161C2.10288 27.7537 2.70862 27.9995 3.34023 27.9995H27.1552C27.7868 27.9995 28.3925 27.7537 28.8391 27.3161C29.2857 26.8785 29.5367 26.285 29.5367 25.6661V4.95737C29.5363 4.33872 29.2853 3.74551 28.8387 3.30817C28.3921 2.87083 27.7866 2.62515 27.1552 2.62515ZM27.7505 25.6673C27.7505 25.8218 27.688 25.97 27.5766 26.0794C27.4652 26.1887 27.314 26.2503 27.1564 26.2506H3.34023C3.18233 26.2506 3.03089 26.1892 2.91924 26.0798C2.80759 25.9704 2.74486 25.822 2.74486 25.6673V4.95853C2.74518 4.80402 2.80804 4.65594 2.91966 4.5468C3.03128 4.43765 3.18254 4.37635 3.34023 4.37635H7.21016V6.12639C7.21 6.35846 7.30394 6.58108 7.47131 6.74529C7.63868 6.9095 7.86577 7.00184 8.10262 7.00199C8.33948 7.00215 8.56669 6.9101 8.73429 6.74612C8.90188 6.58213 8.99612 6.35963 8.99628 6.12756V4.37635H14.3546V6.12639C14.3545 6.35846 14.4484 6.58108 14.6158 6.74529C14.7832 6.9095 15.0102 7.00184 15.2471 7.00199C15.484 7.00215 15.7112 6.9101 15.8788 6.74612C16.0464 6.58213 16.1406 6.35963 16.1408 6.12756V4.37635H21.4991V6.12639C21.499 6.35846 21.5929 6.58108 21.7603 6.74529C21.9276 6.9095 22.1547 7.00184 22.3916 7.00199C22.6284 7.00215 22.8556 6.9101 23.0232 6.74612C23.1908 6.58213 23.2851 6.35963 23.2852 6.12756V4.37635H27.1552C27.3127 4.37666 27.4636 4.4381 27.575 4.54721C27.6863 4.65632 27.749 4.80422 27.7493 4.95853L27.7505 25.6673Z" fill="#A87550"/>
</svg>
