<svg width="25" height="20" viewBox="0 0 25 20" fill="none" xmlns="http://www.w3.org/2000/svg">
<path d="M1.5647 18.8844C1.5647 18.8844 4.74964 14.9 12.6084 14.9C20.4672 14.9 23.6535 18.8844 23.6535 18.8844M12.6084 10C13.7453 10 14.8356 9.55751 15.6395 8.76985C16.4434 7.9822 16.895 6.91392 16.895 5.80001C16.895 4.6861 16.4434 3.61781 15.6395 2.83016C14.8356 2.0425 13.7453 1.60001 12.6084 1.60001C11.4715 1.60001 10.3812 2.0425 9.57732 2.83016C8.77343 3.61781 8.3218 4.6861 8.3218 5.80001C8.3218 6.91392 8.77343 7.9822 9.57732 8.76985C10.3812 9.55751 11.4715 10 12.6084 10Z" stroke="#A87550" stroke-width="1.5" stroke-linecap="round" stroke-linejoin="round"/>
</svg>
