<svg width="31" height="30" viewBox="0 0 31 30" fill="none" xmlns="http://www.w3.org/2000/svg">
<path d="M3.85771 23.0794L2.9099 17.8792C2.77614 17.1464 2.915 16.3909 3.30127 15.7498C3.68754 15.1088 4.29561 14.6247 5.01508 14.3854L5.28656 14.2952M5.28656 14.2952L14.2693 11.3086C14.9303 11.0891 15.6468 11.0891 16.3078 11.3086L25.2905 14.2952M5.28656 14.2952V8.38416C5.28656 7.55905 5.6211 6.76774 6.21657 6.18429C6.81204 5.60085 7.61967 5.27308 8.4618 5.27308H12.4308M25.2905 14.2952L25.562 14.3854C26.2815 14.6247 26.8896 15.1088 27.2758 15.7498C27.6621 16.3909 27.801 17.1464 27.6672 17.8792L26.7194 23.0778M25.2905 14.2952V8.38416C25.2905 7.55905 24.956 6.76774 24.3605 6.18429C23.7651 5.60085 22.9574 5.27308 22.1153 5.27308H18.1463M12.4308 5.27308H18.1463M12.4308 5.27308V3.79998C12.4308 3.05738 12.7319 2.34519 13.2678 1.82009C13.8038 1.295 14.5306 1 15.2885 1C16.0465 1 16.7733 1.295 17.3093 1.82009C17.8452 2.34519 18.1463 3.05738 18.1463 3.79998V5.27308M1 28.0649C2.02719 29.0869 4.52768 29.3762 6.91387 28.4009C8.55229 27.732 10.6225 27.7149 12.2975 28.2905C14.2366 28.9392 16.3405 28.9392 18.2796 28.2905C19.9546 27.7149 22.0248 27.7305 23.6616 28.3993C26.0494 29.3762 28.5515 29.0869 29.5771 28.0633" stroke="#A87550" stroke-width="1.5" stroke-linecap="round" stroke-linejoin="round"/>
</svg>
