<svg width="44" height="41" viewBox="0 0 44 41" fill="none" xmlns="http://www.w3.org/2000/svg">
<path d="M29.1098 17.6636C28.6259 17.1694 28.0368 16.7905 27.3864 16.5552C26.736 16.3198 26.0409 16.234 25.3528 16.304C24.6647 16.3741 24.0012 16.5983 23.4116 16.9599C22.822 17.3215 22.3214 17.8113 21.947 18.3929C21.5727 17.8112 21.0722 17.3212 20.4826 16.9595C19.8929 16.5978 19.2294 16.3735 18.5412 16.3035C17.853 16.2334 17.1579 16.3193 16.5075 16.5547C15.8571 16.7902 15.2681 17.1692 14.7842 17.6636C13.9112 18.5564 13.4224 19.7556 13.4224 21.0044C13.4224 22.2531 13.9112 23.4523 14.7842 24.3452L21.947 31.6245L29.1117 24.3461C29.9841 23.4526 30.4723 22.2532 30.4719 21.0044C30.4716 19.7557 29.9827 18.5566 29.1098 17.6636Z" fill="white" stroke="#F7A163" stroke-width="2" stroke-miterlimit="10" stroke-linecap="round" stroke-linejoin="round"/>
<path d="M38.9967 39.0124H4.89723C3.89237 39.0124 2.92867 38.6132 2.21812 37.9026C1.50758 37.1921 1.1084 36.2284 1.1084 35.2235V1.12402H16.2637L20.9998 8.70169H42.7856V35.2235C42.7856 36.2284 42.3864 37.1921 41.6758 37.9026C40.9653 38.6132 40.0016 39.0124 38.9967 39.0124Z" stroke="#F7A163" stroke-width="2" stroke-miterlimit="10" stroke-linecap="round" stroke-linejoin="round"/>
</svg>
